<svg width="244" height="78" viewBox="0 0 244 78" fill="none" xmlns="http://www.w3.org/2000/svg">
<path d="M15.45 71.03C13.51 71.03 11.79 70.69 10.29 70.01C8.79 69.33 7.61 68.29 6.75 66.89C5.89 65.51 5.46 63.76 5.46 61.64C5.46 61.12 5.47 60.35 5.49 59.33C5.53 58.33 5.57 57.23 5.61 56.03C5.65 54.81 5.7 53.61 5.76 52.43C5.82 51.25 5.86 50.23 5.88 49.37C5.92 48.49 5.94 47.9 5.94 47.6C5.94 45.96 5.66 44.86 5.1 44.3C4.56 43.72 3.82 43.43 2.88 43.43H1.8V38.63H2.88C3.82 38.63 4.56 38.35 5.1 37.79C5.66 37.21 5.94 36.1 5.94 34.46C5.94 34.18 5.92 33.61 5.88 32.75C5.86 31.87 5.82 30.84 5.76 29.66C5.72 28.48 5.67 27.28 5.61 26.06C5.57 24.84 5.53 23.72 5.49 22.7C5.47 21.68 5.46 20.92 5.46 20.42C5.46 18.28 5.89 16.52 6.75 15.14C7.61 13.74 8.79 12.7 10.29 12.02C11.79 11.34 13.51 11 15.45 11V13.31C14.27 13.31 13.22 13.61 12.3 14.21C11.38 14.81 10.66 15.64 10.14 16.7C9.64 17.76 9.39 19 9.39 20.42C9.39 20.9 9.4 21.59 9.42 22.49C9.46 23.39 9.5 24.39 9.54 25.49C9.58 26.59 9.62 27.69 9.66 28.79C9.72 29.87 9.76 30.83 9.78 31.67C9.82 32.51 9.84 33.11 9.84 33.47C9.84 35.37 9.49 36.96 8.79 38.24C8.11 39.5 7.11 40.27 5.79 40.55V41.51C7.11 41.79 8.11 42.57 8.79 43.85C9.49 45.11 9.84 46.69 9.84 48.59C9.84 48.93 9.82 49.52 9.78 50.36C9.76 51.2 9.72 52.17 9.66 53.27C9.62 54.35 9.58 55.44 9.54 56.54C9.5 57.64 9.46 58.64 9.42 59.54C9.4 60.46 9.39 61.16 9.39 61.64C9.39 63.04 9.64 64.27 10.14 65.33C10.66 66.41 11.38 67.24 12.3 67.82C13.22 68.42 14.27 68.72 15.45 68.72V71.03ZM20.0466 52.1C20.0066 50.48 19.9766 48.73 19.9566 46.85C19.9366 44.97 19.9266 43.05 19.9266 41.09C19.9266 39.11 19.9366 37.17 19.9566 35.27C19.9766 33.37 20.0066 31.6 20.0466 29.96C20.1666 27.56 20.7166 25.79 21.6966 24.65C22.6766 23.49 24.2566 22.82 26.4366 22.64V25.88C25.5966 26.02 24.9866 26.36 24.6066 26.9C24.2466 27.44 24.0566 28.29 24.0366 29.45C23.9966 31.59 23.9666 33.6 23.9466 35.48C23.9266 37.34 23.9166 39.17 23.9166 40.97C23.9166 42.77 23.9266 44.6 23.9466 46.46C23.9666 48.32 23.9966 50.32 24.0366 52.46C24.0566 53.62 24.2466 54.48 24.6066 55.04C24.9866 55.6 25.5966 55.96 26.4366 56.12V59.36C24.2366 59.18 22.6466 58.52 21.6666 57.38C20.6866 56.24 20.1466 54.48 20.0466 52.1ZM29.0466 59.36V56.12C29.8666 55.96 30.4566 55.6 30.8166 55.04C31.1766 54.48 31.3766 53.62 31.4166 52.46C31.4166 51.68 31.4166 50.81 31.4166 49.85C31.4366 48.89 31.4166 47.82 31.3566 46.64H35.2566C35.3166 47.54 35.3466 48.48 35.3466 49.46C35.3666 50.44 35.3566 51.32 35.3166 52.1C35.2166 54.48 34.6766 56.25 33.6966 57.41C32.7366 58.55 31.1866 59.2 29.0466 59.36ZM31.3566 35.27C31.3966 34.59 31.4166 33.9 31.4166 33.2C31.4366 32.5 31.4366 31.82 31.4166 31.16C31.4166 30.5 31.4166 29.93 31.4166 29.45C31.3766 28.29 31.1766 27.44 30.8166 26.9C30.4566 26.36 29.8666 26.02 29.0466 25.88V22.64C31.2066 22.8 32.7766 23.45 33.7566 24.59C34.7366 25.73 35.2566 27.48 35.3166 29.84C35.3366 30.62 35.3466 31.49 35.3466 32.45C35.3466 33.41 35.3166 34.35 35.2566 35.27H31.3566ZM40.4972 51.62C40.4372 50 40.3872 48.3 40.3472 46.52C40.3272 44.72 40.3172 42.9 40.3172 41.06C40.3172 39.2 40.3272 37.37 40.3472 35.57C40.3872 33.77 40.4372 32.04 40.4972 30.38C40.5972 27.82 41.1272 25.94 42.0872 24.74C43.0472 23.52 44.6672 22.82 46.9472 22.64V25.88C46.0872 26.04 45.4672 26.41 45.0872 26.99C44.7072 27.55 44.4972 28.41 44.4572 29.57C44.3972 31.69 44.3472 33.68 44.3072 35.54C44.2872 37.4 44.2772 39.23 44.2772 41.03C44.2772 42.81 44.2872 44.63 44.3072 46.49C44.3472 48.35 44.3972 50.34 44.4572 52.46C44.4972 53.6 44.7072 54.46 45.0872 55.04C45.4872 55.6 46.1072 55.96 46.9472 56.12V59.36C44.6672 59.18 43.0472 58.49 42.0872 57.29C41.1272 56.07 40.5972 54.18 40.4972 51.62ZM49.5872 59.36V56.12C50.4472 55.96 51.0672 55.6 51.4472 55.04C51.8272 54.46 52.0372 53.6 52.0772 52.46C52.1372 50.32 52.1872 48.32 52.2272 46.46C52.2672 44.6 52.2872 42.78 52.2872 41C52.2872 39.22 52.2672 37.4 52.2272 35.54C52.1872 33.68 52.1372 31.69 52.0772 29.57C52.0372 28.39 51.8272 27.52 51.4472 26.96C51.0872 26.38 50.4672 26.02 49.5872 25.88V22.64C51.1272 22.76 52.3572 23.11 53.2772 23.69C54.1972 24.27 54.8672 25.11 55.2872 26.21C55.7272 27.29 55.9872 28.68 56.0672 30.38C56.1072 32 56.1372 33.71 56.1572 35.51C56.1972 37.31 56.2172 39.13 56.2172 40.97C56.2172 42.81 56.1972 44.64 56.1572 46.46C56.1372 48.26 56.1072 49.98 56.0672 51.62C55.9872 53.32 55.7272 54.72 55.2872 55.82C54.8672 56.92 54.1972 57.76 53.2772 58.34C52.3572 58.9 51.1272 59.24 49.5872 59.36ZM61.7653 52.28C61.7253 50.56 61.6953 48.78 61.6753 46.94C61.6553 45.08 61.6453 43.19 61.6453 41.27C61.6453 39.35 61.6553 37.42 61.6753 35.48C61.6953 33.54 61.7253 31.62 61.7653 29.72C61.8453 27.16 62.3553 25.33 63.2953 24.23C64.2553 23.13 65.6753 22.58 67.5553 22.58C68.3153 22.58 68.9553 22.68 69.4753 22.88C70.0153 23.06 70.4953 23.32 70.9153 23.66V26.12C70.3153 25.84 69.6253 25.7 68.8453 25.7C67.7853 25.7 67.0153 25.99 66.5353 26.57C66.0553 27.15 65.7953 28.11 65.7553 29.45C65.6753 32.19 65.6253 34.88 65.6053 37.52C65.5853 40.16 65.5853 42.73 65.6053 45.23C65.6253 47.73 65.6753 50.17 65.7553 52.55C65.7953 53.87 66.0453 54.83 66.5053 55.43C66.9653 56.01 67.7353 56.3 68.8153 56.3C69.5753 56.3 70.2753 56.16 70.9153 55.88V58.28C70.4953 58.64 70.0053 58.92 69.4453 59.12C68.9053 59.32 68.2553 59.42 67.4953 59.42C65.5953 59.42 64.1853 58.86 63.2653 57.74C62.3453 56.62 61.8453 54.8 61.7653 52.28ZM73.5553 59V11H77.5153V59H73.5553ZM83.6208 52.1C83.5808 50.48 83.5508 48.73 83.5308 46.85C83.5108 44.97 83.5008 43.05 83.5008 41.09C83.5008 39.11 83.5108 37.17 83.5308 35.27C83.5508 33.37 83.5808 31.6 83.6208 29.96C83.7408 27.56 84.3008 25.79 85.3008 24.65C86.3008 23.49 87.8708 22.83 90.0108 22.67V25.88C89.1908 26.06 88.5908 26.44 88.2108 27.02C87.8308 27.58 87.6308 28.39 87.6108 29.45C87.5708 31.59 87.5408 33.6 87.5208 35.48C87.5008 37.34 87.4908 39.16 87.4908 40.94C87.4908 42.72 87.5008 44.55 87.5208 46.43C87.5408 48.29 87.5708 50.3 87.6108 52.46C87.6308 53.64 87.8208 54.51 88.1808 55.07C88.5608 55.61 89.1708 55.96 90.0108 56.12V59.36C87.8108 59.18 86.2208 58.52 85.2408 57.38C84.2608 56.24 83.7208 54.48 83.6208 52.1ZM92.6508 59.36V56.12C93.4308 55.96 94.0008 55.6 94.3608 55.04C94.7208 54.48 94.9308 53.62 94.9908 52.46C95.0308 51.7 95.0408 50.84 95.0208 49.88C95.0208 48.92 94.9908 47.84 94.9308 46.64H98.8308C98.8908 47.54 98.9208 48.48 98.9208 49.46C98.9408 50.44 98.9308 51.32 98.8908 52.1C98.7708 54.48 98.2408 56.25 97.3008 57.41C96.3608 58.55 94.8108 59.2 92.6508 59.36ZM89.7108 41.84V38.87H94.9908C95.0308 37.47 95.0508 36.15 95.0508 34.91C95.0508 33.67 95.0408 32.59 95.0208 31.67C95.0208 30.73 95.0108 29.99 94.9908 29.45C94.9108 28.39 94.6908 27.58 94.3308 27.02C93.9708 26.44 93.4108 26.06 92.6508 25.88V22.64C94.7708 22.82 96.3108 23.47 97.2708 24.59C98.2308 25.71 98.7708 27.46 98.8908 29.84C98.9108 30.44 98.9308 31.34 98.9508 32.54C98.9708 33.74 98.9708 35.13 98.9508 36.71C98.9508 38.29 98.9108 40 98.8308 41.84H89.7108ZM102.387 71.03V68.72C103.587 68.72 104.637 68.42 105.537 67.82C106.457 67.24 107.167 66.41 107.667 65.33C108.187 64.27 108.447 63.04 108.447 61.64C108.447 61.16 108.427 60.46 108.387 59.54C108.367 58.64 108.337 57.64 108.297 56.54C108.257 55.44 108.207 54.35 108.147 53.27C108.107 52.17 108.067 51.2 108.027 50.36C108.007 49.52 107.997 48.93 107.997 48.59C107.997 46.69 108.337 45.11 109.017 43.85C109.717 42.57 110.727 41.79 112.047 41.51V40.55C110.727 40.27 109.717 39.5 109.017 38.24C108.337 36.96 107.997 35.37 107.997 33.47C107.997 33.11 108.007 32.51 108.027 31.67C108.067 30.83 108.107 29.87 108.147 28.79C108.207 27.69 108.257 26.59 108.297 25.49C108.337 24.39 108.367 23.39 108.387 22.49C108.427 21.59 108.447 20.9 108.447 20.42C108.447 19 108.187 17.76 107.667 16.7C107.167 15.64 106.457 14.81 105.537 14.21C104.637 13.61 103.587 13.31 102.387 13.31V11C104.327 11 106.047 11.34 107.547 12.02C109.047 12.7 110.227 13.74 111.087 15.14C111.947 16.52 112.377 18.28 112.377 20.42C112.377 20.92 112.357 21.68 112.317 22.7C112.297 23.72 112.257 24.84 112.197 26.06C112.157 27.28 112.107 28.48 112.047 29.66C112.007 30.84 111.967 31.87 111.927 32.75C111.907 33.61 111.897 34.18 111.897 34.46C111.897 36.1 112.167 37.21 112.707 37.79C113.267 38.35 114.017 38.63 114.957 38.63H116.037V43.43H114.957C114.017 43.43 113.267 43.72 112.707 44.3C112.167 44.86 111.897 45.96 111.897 47.6C111.897 47.9 111.907 48.49 111.927 49.37C111.967 50.23 112.017 51.25 112.077 52.43C112.137 53.61 112.187 54.81 112.227 56.03C112.267 57.23 112.297 58.33 112.317 59.33C112.357 60.35 112.377 61.12 112.377 61.64C112.377 63.76 111.947 65.51 111.087 66.89C110.227 68.29 109.047 69.33 107.547 70.01C106.047 70.69 104.327 71.03 102.387 71.03Z" fill="#6A7680"/>
<path d="M135.634 54.588C134.402 54.588 133.198 54.476 132.022 54.252C130.874 54.028 129.824 53.706 128.872 53.286C127.92 52.866 127.108 52.376 126.436 51.816V26.196C126.436 25.244 126.73 24.516 127.318 24.012C127.906 23.48 128.634 23.214 129.502 23.214C130.37 23.214 131.112 23.368 131.728 23.676C132.344 23.984 132.792 24.25 133.072 24.474C132.82 25.566 132.624 26.686 132.484 27.834C132.344 28.982 132.246 30.06 132.19 31.068C132.162 32.076 132.148 32.93 132.148 33.63V35.898C132.456 35.03 132.904 34.288 133.492 33.672C134.08 33.028 134.794 32.538 135.634 32.202C136.474 31.866 137.412 31.698 138.448 31.698C139.932 31.698 141.234 32.062 142.354 32.79C143.474 33.49 144.342 34.624 144.958 36.192C145.602 37.732 145.924 39.79 145.924 42.366C145.924 44.242 145.728 45.936 145.336 47.448C144.944 48.96 144.328 50.248 143.488 51.312C142.676 52.376 141.612 53.188 140.296 53.748C139.008 54.308 137.454 54.588 135.634 54.588ZM135.214 52.32C136.194 52.32 136.978 52.054 137.566 51.522C138.154 50.99 138.602 50.262 138.91 49.338C139.246 48.414 139.47 47.364 139.582 46.188C139.694 44.984 139.75 43.71 139.75 42.366C139.75 39.678 139.54 37.732 139.12 36.528C138.728 35.296 138.042 34.68 137.062 34.68C136.25 34.68 135.536 34.918 134.92 35.394C134.304 35.842 133.786 36.486 133.366 37.326C132.974 38.138 132.68 39.09 132.484 40.182C132.288 41.246 132.19 42.38 132.19 43.584V51.438C132.442 51.606 132.722 51.76 133.03 51.9C133.366 52.012 133.716 52.11 134.08 52.194C134.472 52.278 134.85 52.32 135.214 52.32ZM165.066 31.698C165.99 31.698 166.774 31.992 167.418 32.58C168.062 33.14 168.384 33.938 168.384 34.974L168.426 48.12C168.426 48.904 168.51 49.464 168.678 49.8C168.874 50.136 169.154 50.304 169.518 50.304C169.658 50.304 169.84 50.276 170.064 50.22C170.288 50.164 170.47 50.038 170.61 49.842C170.974 50.402 171.156 50.99 171.156 51.606C171.156 52.474 170.862 53.188 170.274 53.748C169.686 54.308 168.832 54.588 167.712 54.588C166.396 54.588 165.346 54.14 164.562 53.244C163.778 52.348 163.386 50.99 163.386 49.17V47.868L164.1 46.608C163.876 48.288 163.456 49.73 162.84 50.934C162.252 52.11 161.44 53.02 160.404 53.664C159.368 54.308 158.08 54.63 156.54 54.63C154.3 54.63 152.634 53.986 151.542 52.698C150.45 51.41 149.904 49.24 149.904 46.188V38.46C149.904 37.816 149.848 36.976 149.736 35.94C149.652 34.904 149.428 33.91 149.064 32.958C149.456 32.65 149.918 32.37 150.45 32.118C150.982 31.838 151.626 31.698 152.382 31.698C153.334 31.698 154.118 31.964 154.734 32.496C155.378 33 155.7 33.728 155.7 34.68V45.264C155.7 46.72 155.77 47.952 155.91 48.96C156.078 49.968 156.358 50.724 156.75 51.228C157.17 51.732 157.758 51.984 158.514 51.984C159.158 51.984 159.732 51.788 160.236 51.396C160.74 50.976 161.174 50.36 161.538 49.548C161.93 48.708 162.224 47.672 162.42 46.44C162.616 45.208 162.714 43.78 162.714 42.156C162.714 40.812 162.7 39.678 162.672 38.754C162.672 37.83 162.644 37.046 162.588 36.402C162.532 35.73 162.434 35.128 162.294 34.596C162.182 34.064 162 33.504 161.748 32.916C162 32.692 162.406 32.44 162.966 32.16C163.554 31.852 164.254 31.698 165.066 31.698ZM180.359 54.588C179.015 54.588 177.867 54.336 176.915 53.832C175.991 53.3 175.221 52.558 174.605 51.606C174.017 50.626 173.583 49.492 173.303 48.204C173.023 46.888 172.883 45.46 172.883 43.92C172.883 40 173.653 36.99 175.193 34.89C176.761 32.762 178.987 31.698 181.871 31.698C183.159 31.698 184.223 31.908 185.063 32.328C185.931 32.748 186.561 33.364 186.953 34.176V32.454C186.953 31.474 186.897 30.256 186.785 28.8C186.673 27.344 186.407 25.902 185.987 24.474C186.239 24.25 186.645 23.984 187.205 23.676C187.793 23.368 188.493 23.214 189.305 23.214C190.229 23.214 191.013 23.48 191.657 24.012C192.301 24.516 192.623 25.244 192.623 26.196L192.581 47.91C192.581 48.638 192.707 49.184 192.959 49.548C193.211 49.912 193.561 50.094 194.009 50.094C194.149 50.094 194.331 50.066 194.555 50.01C194.807 49.954 194.989 49.828 195.101 49.632C195.297 49.912 195.437 50.22 195.521 50.556C195.605 50.892 195.647 51.186 195.647 51.438C195.647 52.306 195.283 53.02 194.555 53.58C193.855 54.112 192.973 54.378 191.909 54.378C190.285 54.378 189.095 53.692 188.339 52.32C187.611 50.92 187.247 49.044 187.247 46.692V44.76L188.129 45.222C187.933 46.818 187.625 48.204 187.205 49.38C186.785 50.556 186.239 51.536 185.567 52.32C184.923 53.076 184.167 53.636 183.299 54C182.431 54.392 181.451 54.588 180.359 54.588ZM182.123 51.48C182.963 51.48 183.677 51.172 184.265 50.556C184.853 49.912 185.329 49.058 185.693 47.994C186.085 46.93 186.365 45.74 186.533 44.424C186.729 43.108 186.827 41.764 186.827 40.392C186.827 39.636 186.785 38.908 186.701 38.208C186.617 37.508 186.449 36.892 186.197 36.36C185.973 35.8 185.623 35.366 185.147 35.058C184.699 34.722 184.097 34.554 183.341 34.554C181.773 34.554 180.667 35.366 180.023 36.99C179.379 38.614 179.057 40.882 179.057 43.794C179.057 45.082 179.099 46.216 179.183 47.196C179.295 48.148 179.463 48.946 179.687 49.59C179.939 50.206 180.261 50.682 180.653 51.018C181.045 51.326 181.535 51.48 182.123 51.48ZM204.968 54.588C203.624 54.588 202.476 54.336 201.524 53.832C200.6 53.3 199.83 52.558 199.214 51.606C198.626 50.626 198.192 49.492 197.912 48.204C197.632 46.888 197.492 45.46 197.492 43.92C197.492 40 198.262 36.99 199.802 34.89C201.37 32.762 203.596 31.698 206.48 31.698C207.768 31.698 208.832 31.908 209.672 32.328C210.54 32.748 211.17 33.364 211.562 34.176V32.454C211.562 31.474 211.506 30.256 211.394 28.8C211.282 27.344 211.016 25.902 210.596 24.474C210.848 24.25 211.254 23.984 211.814 23.676C212.402 23.368 213.102 23.214 213.914 23.214C214.838 23.214 215.622 23.48 216.266 24.012C216.91 24.516 217.232 25.244 217.232 26.196L217.19 47.91C217.19 48.638 217.316 49.184 217.568 49.548C217.82 49.912 218.17 50.094 218.618 50.094C218.758 50.094 218.94 50.066 219.164 50.01C219.416 49.954 219.598 49.828 219.71 49.632C219.906 49.912 220.046 50.22 220.13 50.556C220.214 50.892 220.256 51.186 220.256 51.438C220.256 52.306 219.892 53.02 219.164 53.58C218.464 54.112 217.582 54.378 216.518 54.378C214.894 54.378 213.704 53.692 212.948 52.32C212.22 50.92 211.856 49.044 211.856 46.692V44.76L212.738 45.222C212.542 46.818 212.234 48.204 211.814 49.38C211.394 50.556 210.848 51.536 210.176 52.32C209.532 53.076 208.776 53.636 207.908 54C207.04 54.392 206.06 54.588 204.968 54.588ZM206.732 51.48C207.572 51.48 208.286 51.172 208.874 50.556C209.462 49.912 209.938 49.058 210.302 47.994C210.694 46.93 210.974 45.74 211.142 44.424C211.338 43.108 211.436 41.764 211.436 40.392C211.436 39.636 211.394 38.908 211.31 38.208C211.226 37.508 211.058 36.892 210.806 36.36C210.582 35.8 210.232 35.366 209.756 35.058C209.308 34.722 208.706 34.554 207.95 34.554C206.382 34.554 205.276 35.366 204.632 36.99C203.988 38.614 203.666 40.882 203.666 43.794C203.666 45.082 203.708 46.216 203.792 47.196C203.904 48.148 204.072 48.946 204.296 49.59C204.548 50.206 204.87 50.682 205.262 51.018C205.654 51.326 206.144 51.48 206.732 51.48ZM230.677 63.408C229.277 63.408 227.961 63.282 226.729 63.03C225.497 62.778 224.503 62.33 223.747 61.686C222.991 61.042 222.613 60.146 222.613 58.998C222.613 58.074 222.977 57.318 223.705 56.73C224.433 56.17 225.385 55.89 226.561 55.89C227.793 55.89 228.661 56.212 229.165 56.856C228.745 57.136 228.437 57.472 228.241 57.864C228.045 58.256 227.947 58.634 227.947 58.998C227.947 59.502 228.045 59.95 228.241 60.342C228.465 60.762 228.787 61.084 229.207 61.308C229.627 61.56 230.159 61.686 230.803 61.686C232.595 61.686 233.953 60.846 234.877 59.166C235.801 57.514 236.263 55.344 236.263 52.656C236.263 52.292 236.305 51.774 236.389 51.102C236.473 50.43 236.571 49.744 236.683 49.044C236.795 48.344 236.893 47.756 236.977 47.28L237.313 46.188C236.949 48.708 236.179 50.696 235.003 52.152C233.827 53.58 232.063 54.294 229.711 54.294C227.499 54.294 225.847 53.65 224.755 52.362C223.663 51.074 223.117 48.904 223.117 45.852V38.46C223.117 37.816 223.061 36.976 222.949 35.94C222.865 34.904 222.641 33.91 222.277 32.958C222.669 32.65 223.131 32.37 223.663 32.118C224.195 31.838 224.839 31.698 225.595 31.698C226.547 31.698 227.331 31.964 227.947 32.496C228.591 33 228.913 33.728 228.913 34.68V44.928C228.913 47.084 229.081 48.736 229.417 49.884C229.781 51.032 230.523 51.606 231.643 51.606C232.287 51.606 232.875 51.41 233.407 51.018C233.939 50.598 234.387 49.996 234.751 49.212C235.143 48.4 235.437 47.406 235.633 46.23C235.829 45.054 235.927 43.682 235.927 42.114C235.927 40.77 235.913 39.636 235.885 38.712C235.885 37.788 235.857 37.004 235.801 36.36C235.745 35.716 235.647 35.128 235.507 34.596C235.395 34.064 235.213 33.504 234.961 32.916C235.213 32.692 235.619 32.44 236.179 32.16C236.767 31.852 237.467 31.698 238.279 31.698C239.203 31.698 239.987 31.992 240.631 32.58C241.275 33.14 241.597 33.938 241.597 34.974L241.639 51.774C241.639 54.658 241.163 56.94 240.211 58.62C239.259 60.328 237.957 61.546 236.305 62.274C234.681 63.03 232.805 63.408 230.677 63.408Z" fill="#8C4C35"/>
</svg>
