<svg width="153" height="38" viewBox="0 0 153 38" fill="none" xmlns="http://www.w3.org/2000/svg">
<path d="M8.70773 38C7.47015 38 6.37291 37.7848 5.41602 37.3543C4.45912 36.9239 3.70637 36.2655 3.15775 35.3793C2.60913 34.5057 2.33482 33.398 2.33482 32.056C2.33482 31.7268 2.3412 31.2394 2.35396 30.5937C2.37947 29.9607 2.40499 29.2644 2.43051 28.5047C2.45603 27.7325 2.48792 26.9728 2.5262 26.2259C2.56447 25.4789 2.58999 24.8332 2.60275 24.2889C2.62827 23.7318 2.64103 23.3583 2.64103 23.1684C2.64103 22.1303 2.4624 21.4339 2.10516 21.0795C1.76068 20.7123 1.28862 20.5287 0.688963 20.5287H0V17.4903H0.688963C1.28862 17.4903 1.76068 17.313 2.10516 16.9585C2.4624 16.5914 2.64103 15.8887 2.64103 14.8506C2.64103 14.6733 2.62827 14.3125 2.60275 13.7681C2.58999 13.2111 2.56447 12.5591 2.5262 11.8121C2.50068 11.0651 2.46878 10.3055 2.43051 9.53323C2.40499 8.76095 2.37947 8.05197 2.35396 7.4063C2.3412 6.76062 2.33482 6.27953 2.33482 5.96302C2.33482 4.60836 2.60913 3.49425 3.15775 2.62069C3.70637 1.73447 4.45912 1.07613 5.41602 0.645676C6.37291 0.215225 7.47015 0 8.70773 0V1.46227C7.95497 1.46227 7.28515 1.65217 6.69825 2.03198C6.11136 2.41179 5.65205 2.9372 5.32033 3.60819C5.00136 4.27919 4.84188 5.06413 4.84188 5.96302C4.84188 6.26687 4.84826 6.70365 4.86102 7.27336C4.88653 7.84308 4.91205 8.47609 4.93757 9.17241C4.96309 9.86873 4.9886 10.565 5.01412 11.2614C5.0524 11.945 5.07791 12.5527 5.09067 13.0845C5.11619 13.6162 5.12895 13.996 5.12895 14.2239C5.12895 15.4266 4.90567 16.4331 4.45912 17.2434C4.02533 18.041 3.3874 18.5284 2.54534 18.7056V19.3133C3.3874 19.4906 4.02533 19.9843 4.45912 20.7946C4.90567 21.5922 5.12895 22.5924 5.12895 23.7951C5.12895 24.0103 5.11619 24.3838 5.09067 24.9155C5.07791 25.4473 5.0524 26.0613 5.01412 26.7576C4.9886 27.4413 4.96309 28.1313 4.93757 28.8276C4.91205 29.5239 4.88653 30.1569 4.86102 30.7266C4.84826 31.309 4.84188 31.7521 4.84188 32.056C4.84188 32.9422 5.00136 33.7208 5.32033 34.3918C5.65205 35.0755 6.11136 35.6009 6.69825 35.968C7.28515 36.3478 7.95497 36.5377 8.70773 36.5377V38Z" fill="#6A7680"/>
<path d="M11.64 26.017C11.6145 24.9915 11.5954 23.8837 11.5826 22.6937C11.5698 21.5036 11.5635 20.2882 11.5635 19.0475C11.5635 17.7941 11.5698 16.5661 11.5826 15.3633C11.5954 14.1606 11.6145 13.0401 11.64 12.002C11.7166 10.4828 12.0674 9.36232 12.6926 8.64068C13.3178 7.90638 14.3257 7.48226 15.7164 7.36832V9.41929C15.1805 9.50791 14.7914 9.72314 14.549 10.065C14.3193 10.4068 14.1981 10.9449 14.1853 11.6792C14.1598 13.0338 14.1407 14.3062 14.1279 15.4963C14.1152 16.6737 14.1088 17.8321 14.1088 18.9715C14.1088 20.1109 14.1152 21.2694 14.1279 22.4468C14.1407 23.6242 14.1598 24.8902 14.1853 26.2449C14.1981 26.9792 14.3193 27.5236 14.549 27.8781C14.7914 28.2326 15.1805 28.4604 15.7164 28.5617V30.6127C14.3129 30.4988 13.2986 30.081 12.6735 29.3593C12.0483 28.6377 11.7038 27.5236 11.64 26.017ZM17.3814 30.6127V28.5617C17.9045 28.4604 18.2808 28.2326 18.5105 27.8781C18.7402 27.5236 18.8677 26.9792 18.8933 26.2449C18.8933 25.7511 18.8933 25.2004 18.8933 24.5927C18.906 23.985 18.8933 23.3077 18.855 22.5607H21.3429C21.3812 23.1304 21.4003 23.7255 21.4003 24.3458C21.4131 24.9662 21.4067 25.5232 21.3812 26.017C21.3174 27.5236 20.9729 28.644 20.3477 29.3783C19.7353 30.0999 18.7465 30.5114 17.3814 30.6127ZM18.855 15.3633C18.8805 14.9329 18.8933 14.4961 18.8933 14.053C18.906 13.6099 18.906 13.1794 18.8933 12.7616C18.8933 12.3438 18.8933 11.983 18.8933 11.6792C18.8677 10.9449 18.7402 10.4068 18.5105 10.065C18.2808 9.72314 17.9045 9.50791 17.3814 9.41929V7.36832C18.7593 7.4696 19.7608 7.88106 20.386 8.6027C21.0112 9.32434 21.3429 10.4321 21.3812 11.926C21.3939 12.4198 21.4003 12.9705 21.4003 13.5782C21.4003 14.1859 21.3812 14.7809 21.3429 15.3633H18.855Z" fill="#6A7680"/>
<path d="M24.686 25.7131C24.6478 24.6877 24.6159 23.6115 24.5904 22.4848C24.5776 21.3453 24.5712 20.1932 24.5712 19.0285C24.5712 17.8511 24.5776 16.6927 24.5904 15.5532C24.6159 14.4138 24.6478 13.3187 24.686 12.2679C24.7498 10.6473 25.0879 9.45727 25.7004 8.69765C26.3128 7.92537 27.3462 7.48226 28.8007 7.36832V9.41929C28.2521 9.52057 27.8566 9.75479 27.6141 10.1219C27.3717 10.4764 27.2378 11.0208 27.2122 11.7551C27.174 13.0971 27.1421 14.3568 27.1166 15.5342C27.1038 16.7116 27.0974 17.8701 27.0974 19.0095C27.0974 20.1363 27.1038 21.2884 27.1166 22.4658C27.1421 23.6432 27.174 24.9029 27.2122 26.2449C27.2378 26.9665 27.3717 27.5109 27.6141 27.8781C27.8693 28.2326 28.2648 28.4604 28.8007 28.5617V30.6127C27.3462 30.4988 26.3128 30.062 25.7004 29.3023C25.0879 28.5301 24.7498 27.3337 24.686 25.7131ZM30.4848 30.6127V28.5617C31.0334 28.4604 31.429 28.2326 31.6714 27.8781C31.9138 27.5109 32.0477 26.9665 32.0733 26.2449C32.1115 24.8902 32.1434 23.6242 32.169 22.4468C32.1945 21.2694 32.2072 20.1173 32.2072 18.9905C32.2072 17.8637 32.1945 16.7116 32.169 15.5342C32.1434 14.3568 32.1115 13.0971 32.0733 11.7551C32.0477 11.0082 31.9138 10.4574 31.6714 10.1029C31.4417 9.7358 31.0462 9.50791 30.4848 9.41929V7.36832C31.4672 7.44428 32.2519 7.66583 32.8388 8.03298C33.4257 8.40013 33.8531 8.93187 34.121 9.62819C34.4017 10.3118 34.5676 11.1917 34.6186 12.2679C34.6441 13.2934 34.6633 14.3758 34.676 15.5152C34.7015 16.6547 34.7143 17.8068 34.7143 18.9715C34.7143 20.1363 34.7015 21.2947 34.676 22.4468C34.6633 23.5862 34.6441 24.675 34.6186 25.7131C34.5676 26.7893 34.4017 27.6755 34.121 28.3718C33.8531 29.0681 33.4257 29.5999 32.8388 29.967C32.2519 30.3215 31.4672 30.5367 30.4848 30.6127Z" fill="#6A7680"/>
<path d="M38.2536 26.1309C38.2281 25.0421 38.2089 23.9154 38.1962 22.7506C38.1834 21.5732 38.177 20.3768 38.177 19.1614C38.177 17.946 38.1834 16.7243 38.1962 15.4963C38.2089 14.2682 38.2281 13.0528 38.2536 11.8501C38.3046 10.2296 38.63 9.07113 39.2296 8.37481C39.842 7.67849 40.7479 7.33033 41.9472 7.33033C42.432 7.33033 42.8403 7.39363 43.172 7.52024C43.5165 7.63418 43.8227 7.79877 44.0906 8.01399V9.57121C43.7079 9.39397 43.2677 9.30535 42.7701 9.30535C42.0939 9.30535 41.6027 9.48892 41.2965 9.85607C40.9903 10.2232 40.8244 10.8309 40.7989 11.6792C40.7479 13.4136 40.716 15.1164 40.7032 16.7876C40.6905 18.4588 40.6905 20.0856 40.7032 21.6682C40.716 23.2507 40.7479 24.7953 40.7989 26.3018C40.8244 27.1374 40.9839 27.7451 41.2774 28.1249C41.5708 28.4921 42.062 28.6757 42.751 28.6757C43.2358 28.6757 43.6824 28.587 44.0906 28.4098V29.929C43.8227 30.1569 43.5101 30.3342 43.1529 30.4608C42.8084 30.5874 42.3938 30.6507 41.9089 30.6507C40.6969 30.6507 39.7974 30.2962 39.2105 29.5872C38.6236 28.8782 38.3046 27.7261 38.2536 26.1309ZM45.7748 30.3848V0H48.301V30.3848H45.7748Z" fill="#6A7680"/>
<path d="M52.1958 26.017C52.1703 24.9915 52.1512 23.8837 52.1384 22.6937C52.1257 21.5036 52.1193 20.2882 52.1193 19.0475C52.1193 17.7941 52.1257 16.5661 52.1384 15.3633C52.1512 14.1606 52.1703 13.0401 52.1958 12.002C52.2724 10.4828 52.6296 9.36232 53.2675 8.64068C53.9055 7.90638 54.907 7.48859 56.2722 7.38731V9.41929C55.7491 9.53323 55.3663 9.77378 55.1239 10.1409C54.8815 10.4954 54.7539 11.0082 54.7412 11.6792C54.7156 13.0338 54.6965 14.3062 54.6837 15.4963C54.671 16.6737 54.6646 17.8258 54.6646 18.9525C54.6646 20.0793 54.671 21.2377 54.6837 22.4278C54.6965 23.6052 54.7156 24.8776 54.7412 26.2449C54.7539 26.9918 54.8751 27.5426 55.1048 27.8971C55.3472 28.2389 55.7363 28.4604 56.2722 28.5617V30.6127C54.8688 30.4988 53.8544 30.081 53.2293 29.3593C52.6041 28.6377 52.2596 27.5236 52.1958 26.017ZM57.9563 30.6127V28.5617C58.4539 28.4604 58.8175 28.2326 59.0472 27.8781C59.2768 27.5236 59.4108 26.9792 59.4491 26.2449C59.4746 25.7638 59.481 25.2194 59.4682 24.6117C59.4682 24.004 59.4491 23.3203 59.4108 22.5607H61.8987C61.937 23.1304 61.9561 23.7255 61.9561 24.3458C61.9689 24.9662 61.9625 25.5232 61.937 26.017C61.8604 27.5236 61.5223 28.644 60.9227 29.3783C60.323 30.0999 59.3343 30.5114 57.9563 30.6127ZM56.0808 19.5222V17.6422H59.4491C59.4746 16.756 59.4873 15.9204 59.4873 15.1354C59.4873 14.3505 59.481 13.6668 59.4682 13.0845C59.4682 12.4894 59.4618 12.021 59.4491 11.6792C59.398 11.0082 59.2577 10.4954 59.028 10.1409C58.7984 9.77378 58.4412 9.53323 57.9563 9.41929V7.36832C59.3087 7.48226 60.2911 7.89372 60.9036 8.6027C61.516 9.31168 61.8604 10.4195 61.937 11.926C61.9498 12.3058 61.9625 12.8756 61.9753 13.6352C61.988 14.3948 61.988 15.2747 61.9753 16.2749C61.9753 17.275 61.9498 18.3575 61.8987 19.5222H56.0808Z" fill="#6A7680"/>
<path d="M64.1675 38V36.5377C64.933 36.5377 65.6028 36.3478 66.1769 35.968C66.7638 35.6009 67.2168 35.0755 67.5357 34.3918C67.8674 33.7208 68.0333 32.9422 68.0333 32.056C68.0333 31.7521 68.0205 31.309 67.995 30.7266C67.9823 30.1569 67.9631 29.5239 67.9376 28.8276C67.9121 28.1313 67.8802 27.4413 67.8419 26.7576C67.8164 26.0613 67.7909 25.4473 67.7654 24.9155C67.7526 24.3838 67.7462 24.0103 67.7462 23.7951C67.7462 22.5924 67.9631 21.5922 68.3969 20.7946C68.8435 19.9843 69.4878 19.4906 70.3298 19.3133V18.7056C69.4878 18.5284 68.8435 18.041 68.3969 17.2434C67.9631 16.4331 67.7462 15.4266 67.7462 14.2239C67.7462 13.996 67.7526 13.6162 67.7654 13.0845C67.7909 12.5527 67.8164 11.945 67.8419 11.2614C67.8802 10.565 67.9121 9.86873 67.9376 9.17241C67.9631 8.47609 67.9823 7.84308 67.995 7.27336C68.0205 6.70365 68.0333 6.26687 68.0333 5.96302C68.0333 5.06413 67.8674 4.27919 67.5357 3.60819C67.2168 2.9372 66.7638 2.41179 66.1769 2.03198C65.6028 1.65217 64.933 1.46227 64.1675 1.46227V0C65.405 0 66.5023 0.215225 67.4592 0.645676C68.4161 1.07613 69.1688 1.73447 69.7174 2.62069C70.2661 3.49425 70.5404 4.60836 70.5404 5.96302C70.5404 6.27953 70.5276 6.76062 70.5021 7.4063C70.4893 8.05197 70.4638 8.76095 70.4255 9.53323C70.4 10.3055 70.3681 11.0651 70.3298 11.8121C70.3043 12.5591 70.2788 13.2111 70.2533 13.7681C70.2405 14.3125 70.2342 14.6733 70.2342 14.8506C70.2342 15.8887 70.4064 16.5914 70.7509 16.9585C71.1081 17.313 71.5866 17.4903 72.1862 17.4903H72.8752V20.5287H72.1862C71.5866 20.5287 71.1081 20.7123 70.7509 21.0795C70.4064 21.4339 70.2342 22.1303 70.2342 23.1684C70.2342 23.3583 70.2405 23.7318 70.2533 24.2889C70.2788 24.8332 70.3107 25.4789 70.349 26.2259C70.3873 26.9728 70.4192 27.7325 70.4447 28.5047C70.4702 29.2644 70.4893 29.9607 70.5021 30.5937C70.5276 31.2394 70.5404 31.7268 70.5404 32.056C70.5404 33.398 70.2661 34.5057 69.7174 35.3793C69.1688 36.2655 68.4161 36.9239 67.4592 37.3543C66.5023 37.7848 65.405 38 64.1675 38Z" fill="#6A7680"/>
<path d="M85.3766 27.5919C84.5906 27.5919 83.8226 27.521 83.0724 27.3792C82.34 27.2374 81.6702 27.0336 81.0629 26.7677C80.4556 26.5019 79.9376 26.1917 79.5089 25.8372V9.61932C79.5089 9.01669 79.6964 8.55585 80.0715 8.23681C80.4466 7.90005 80.9111 7.73167 81.4648 7.73167C82.0185 7.73167 82.4918 7.82915 82.8848 8.02412C83.2778 8.21909 83.5636 8.38747 83.7422 8.52927C83.5814 9.22052 83.4564 9.9295 83.3671 10.6562C83.2778 11.3829 83.2153 12.0653 83.1795 12.7034C83.1617 13.3415 83.1527 13.8821 83.1527 14.3252V15.7609C83.3492 15.2114 83.635 14.7417 84.0101 14.3518C84.3852 13.9441 84.8407 13.6339 85.3766 13.4212C85.9124 13.2085 86.5108 13.1022 87.1717 13.1022C88.1184 13.1022 88.949 13.3326 89.6634 13.7934C90.3779 14.2365 90.9316 14.9544 91.3246 15.947C91.7354 16.9218 91.9408 18.2246 91.9408 19.8552C91.9408 21.0427 91.8158 22.1151 91.5657 23.0722C91.3157 24.0293 90.9227 24.8446 90.3868 25.5182C89.8688 26.1917 89.1901 26.7057 88.3506 27.0602C87.5289 27.4147 86.5376 27.5919 85.3766 27.5919ZM85.1086 26.1563C85.7338 26.1563 86.2339 25.9879 86.609 25.6511C86.9841 25.3143 87.2699 24.8535 87.4664 24.2686C87.6808 23.6837 87.8236 23.019 87.8951 22.2746C87.9665 21.5124 88.0023 20.706 88.0023 19.8552C88.0023 18.1537 87.8683 16.9218 87.6004 16.1597C87.3503 15.3798 86.9127 14.9898 86.2875 14.9898C85.7695 14.9898 85.314 15.1405 84.9211 15.4418C84.5281 15.7254 84.1977 16.1331 83.9297 16.6648C83.6797 17.1788 83.4921 17.7814 83.3671 18.4727C83.242 19.1462 83.1795 19.8641 83.1795 20.6262V25.5979C83.3403 25.7043 83.5189 25.8018 83.7154 25.8904C83.9297 25.9613 84.153 26.0233 84.3852 26.0765C84.6353 26.1297 84.8764 26.1563 85.1086 26.1563Z" fill="#6A7680"/>
<path d="M104.152 13.1022C104.741 13.1022 105.242 13.2883 105.652 13.6605C106.063 14.015 106.269 14.5201 106.269 15.1759L106.295 23.4976C106.295 23.9939 106.349 24.3484 106.456 24.5611C106.581 24.7737 106.76 24.8801 106.992 24.8801C107.081 24.8801 107.197 24.8624 107.34 24.8269C107.483 24.7915 107.599 24.7117 107.689 24.5876C107.921 24.9421 108.037 25.3143 108.037 25.7043C108.037 26.2537 107.849 26.7057 107.474 27.0602C107.099 27.4147 106.554 27.5919 105.84 27.5919C105 27.5919 104.331 27.3083 103.83 26.7412C103.33 26.174 103.08 25.3143 103.08 24.1623V23.3381L103.536 22.5405C103.393 23.6039 103.125 24.5167 102.732 25.2789C102.357 26.0233 101.839 26.5994 101.178 27.007C100.517 27.4147 99.6954 27.6185 98.713 27.6185C97.284 27.6185 96.2212 27.2109 95.5246 26.3955C94.828 25.5802 94.4797 24.2066 94.4797 22.2746V17.3826C94.4797 16.975 94.444 16.4432 94.3725 15.7874C94.3189 15.1316 94.176 14.5024 93.9438 13.8998C94.1939 13.7048 94.4886 13.5276 94.828 13.368C95.1674 13.1908 95.5782 13.1022 96.0605 13.1022C96.6678 13.1022 97.1679 13.2706 97.5609 13.6073C97.9717 13.9264 98.1771 14.3872 98.1771 14.9898V21.6897C98.1771 22.6114 98.2218 23.3912 98.3111 24.0293C98.4183 24.6674 98.5969 25.146 98.8469 25.465C99.1149 25.784 99.49 25.9436 99.9722 25.9436C100.383 25.9436 100.749 25.8195 101.071 25.5713C101.392 25.3055 101.669 24.9155 101.901 24.4015C102.151 23.8698 102.339 23.214 102.464 22.4341C102.589 21.6542 102.652 20.7503 102.652 19.7223C102.652 18.8715 102.643 18.1537 102.625 17.5687C102.625 16.9838 102.607 16.4876 102.571 16.0799C102.535 15.6545 102.473 15.2734 102.384 14.9367C102.312 14.5999 102.196 14.2454 102.035 13.8732C102.196 13.7314 102.455 13.5719 102.812 13.3946C103.187 13.1997 103.634 13.1022 104.152 13.1022Z" fill="#6A7680"/>
<path d="M113.908 27.5919C113.051 27.5919 112.318 27.4324 111.711 27.1134C111.121 26.7766 110.63 26.3069 110.237 25.7043C109.862 25.0839 109.585 24.3661 109.407 23.5508C109.228 22.7177 109.139 21.8138 109.139 20.8389C109.139 18.3575 109.63 16.4521 110.612 15.1228C111.613 13.7757 113.033 13.1022 114.873 13.1022C115.694 13.1022 116.373 13.2351 116.909 13.501C117.463 13.7668 117.864 14.1568 118.114 14.6708V13.5807C118.114 12.9604 118.079 12.1894 118.007 11.2677C117.936 10.346 117.766 9.43322 117.498 8.52927C117.659 8.38747 117.918 8.21909 118.275 8.02412C118.65 7.82915 119.097 7.73167 119.615 7.73167C120.204 7.73167 120.704 7.90005 121.115 8.23681C121.526 8.55585 121.732 9.01669 121.732 9.61932L121.705 23.3647C121.705 23.8255 121.785 24.1711 121.946 24.4015C122.107 24.632 122.33 24.7472 122.616 24.7472C122.705 24.7472 122.821 24.7294 122.964 24.694C123.125 24.6585 123.241 24.5788 123.312 24.4547C123.437 24.632 123.527 24.8269 123.58 25.0396C123.634 25.2523 123.661 25.4384 123.661 25.5979C123.661 26.1474 123.428 26.5994 122.964 26.9539C122.517 27.2906 121.955 27.459 121.276 27.459C120.24 27.459 119.481 27.0248 118.999 26.1563C118.534 25.27 118.302 24.0825 118.302 22.5936V21.3706L118.865 21.6631C118.74 22.6734 118.543 23.5508 118.275 24.2952C118.007 25.0396 117.659 25.66 117.23 26.1563C116.819 26.6348 116.337 26.9893 115.783 27.2197C115.23 27.4679 114.605 27.5919 113.908 27.5919ZM115.033 25.6245C115.569 25.6245 116.025 25.4296 116.4 25.0396C116.775 24.632 117.078 24.0914 117.311 23.4178C117.561 22.7443 117.739 21.991 117.847 21.158C117.972 20.3249 118.034 19.4741 118.034 18.6056C118.034 18.1271 118.007 17.6662 117.954 17.2231C117.9 16.78 117.793 16.3901 117.632 16.0533C117.489 15.6988 117.266 15.4241 116.962 15.2291C116.677 15.0164 116.293 14.9101 115.81 14.9101C114.81 14.9101 114.104 15.4241 113.694 16.4521C113.283 17.4801 113.077 18.9158 113.077 20.7592C113.077 21.5745 113.104 22.2923 113.158 22.9127C113.229 23.5153 113.336 24.0205 113.479 24.4281C113.64 24.8181 113.845 25.1194 114.096 25.3321C114.346 25.527 114.658 25.6245 115.033 25.6245Z" fill="#6A7680"/>
<path d="M129.607 27.5919C128.75 27.5919 128.017 27.4324 127.41 27.1134C126.821 26.7766 126.329 26.3069 125.936 25.7043C125.561 25.0839 125.284 24.3661 125.106 23.5508C124.927 22.7177 124.838 21.8138 124.838 20.8389C124.838 18.3575 125.329 16.4521 126.311 15.1228C127.312 13.7757 128.732 13.1022 130.572 13.1022C131.393 13.1022 132.072 13.2351 132.608 13.501C133.162 13.7668 133.563 14.1568 133.813 14.6708V13.5807C133.813 12.9604 133.778 12.1894 133.706 11.2677C133.635 10.346 133.465 9.43322 133.197 8.52927C133.358 8.38747 133.617 8.21909 133.974 8.02412C134.349 7.82915 134.796 7.73167 135.314 7.73167C135.903 7.73167 136.403 7.90005 136.814 8.23681C137.225 8.55585 137.431 9.01669 137.431 9.61932L137.404 23.3647C137.404 23.8255 137.484 24.1711 137.645 24.4015C137.806 24.632 138.029 24.7472 138.315 24.7472C138.404 24.7472 138.52 24.7294 138.663 24.694C138.824 24.6585 138.94 24.5788 139.011 24.4547C139.136 24.632 139.226 24.8269 139.279 25.0396C139.333 25.2523 139.36 25.4384 139.36 25.5979C139.36 26.1474 139.127 26.5994 138.663 26.9539C138.216 27.2906 137.654 27.459 136.975 27.459C135.939 27.459 135.18 27.0248 134.698 26.1563C134.233 25.27 134.001 24.0825 134.001 22.5936V21.3706L134.564 21.6631C134.439 22.6734 134.242 23.5508 133.974 24.2952C133.706 25.0396 133.358 25.66 132.929 26.1563C132.518 26.6348 132.036 26.9893 131.483 27.2197C130.929 27.4679 130.304 27.5919 129.607 27.5919ZM130.732 25.6245C131.268 25.6245 131.724 25.4296 132.099 25.0396C132.474 24.632 132.777 24.0914 133.01 23.4178C133.26 22.7443 133.438 21.991 133.546 21.158C133.671 20.3249 133.733 19.4741 133.733 18.6056C133.733 18.1271 133.706 17.6662 133.653 17.2231C133.599 16.78 133.492 16.3901 133.331 16.0533C133.188 15.6988 132.965 15.4241 132.661 15.2291C132.376 15.0164 131.992 14.9101 131.509 14.9101C130.509 14.9101 129.803 15.4241 129.393 16.4521C128.982 17.4801 128.776 18.9158 128.776 20.7592C128.776 21.5745 128.803 22.2923 128.857 22.9127C128.928 23.5153 129.035 24.0205 129.178 24.4281C129.339 24.8181 129.544 25.1194 129.795 25.3321C130.045 25.527 130.357 25.6245 130.732 25.6245Z" fill="#6A7680"/>
<path d="M146.007 33.1751C145.114 33.1751 144.274 33.0954 143.488 32.9359C142.703 32.7763 142.068 32.4928 141.586 32.0851C141.104 31.6774 140.863 31.1102 140.863 30.3835C140.863 29.7986 141.095 29.3201 141.559 28.9479C142.024 28.5934 142.631 28.4161 143.381 28.4161C144.167 28.4161 144.721 28.62 145.042 29.0276C144.775 29.2049 144.578 29.4176 144.453 29.6657C144.328 29.9138 144.265 30.1531 144.265 30.3835C144.265 30.7026 144.328 30.9862 144.453 31.2343C144.596 31.5002 144.801 31.704 145.069 31.8458C145.337 32.0053 145.677 32.0851 146.087 32.0851C147.231 32.0851 148.097 31.5534 148.686 30.4899C149.276 29.4441 149.571 28.0705 149.571 26.369C149.571 26.1385 149.597 25.8106 149.651 25.3852C149.704 24.9599 149.767 24.5256 149.838 24.0825C149.91 23.6394 149.972 23.2672 150.026 22.9658L150.24 22.2746C150.008 23.8698 149.517 25.1282 148.767 26.0499C148.017 26.9539 146.891 27.4058 145.391 27.4058C143.98 27.4058 142.926 26.9982 142.229 26.1828C141.533 25.3675 141.184 23.9939 141.184 22.0619V17.3826C141.184 16.975 141.149 16.4432 141.077 15.7874C141.024 15.1316 140.881 14.5024 140.648 13.8998C140.898 13.7048 141.193 13.5276 141.533 13.368C141.872 13.1908 142.283 13.1022 142.765 13.1022C143.372 13.1022 143.873 13.2706 144.265 13.6073C144.676 13.9264 144.882 14.3872 144.882 14.9898V21.477C144.882 22.8418 144.989 23.8875 145.203 24.6142C145.435 25.3409 145.909 25.7043 146.623 25.7043C147.034 25.7043 147.409 25.5802 147.749 25.3321C148.088 25.0662 148.374 24.6851 148.606 24.1888C148.856 23.6748 149.044 23.0456 149.169 22.3012C149.294 21.5568 149.356 20.6883 149.356 19.6957C149.356 18.8449 149.347 18.1271 149.329 17.5422C149.329 16.9573 149.312 16.461 149.276 16.0533C149.24 15.6456 149.178 15.2734 149.088 14.9367C149.017 14.5999 148.901 14.2454 148.74 13.8732C148.901 13.7314 149.16 13.5719 149.517 13.3946C149.892 13.1997 150.339 13.1022 150.857 13.1022C151.446 13.1022 151.946 13.2883 152.357 13.6605C152.768 14.015 152.973 14.5201 152.973 15.1759L153 25.8106C153 27.6362 152.696 29.0808 152.089 30.1443C151.482 31.2255 150.651 31.9965 149.597 32.4573C148.561 32.9359 147.365 33.1751 146.007 33.1751Z" fill="#6A7680"/>
</svg>
